<?xml version="1.0" encoding="utf-8"?>
<!-- Generator: Adobe Illustrator 19.0.1, SVG Export Plug-In . SVG Version: 6.00 Build 0)  -->
<svg version="1.1" id="Layer_1" xmlns="http://www.w3.org/2000/svg" xmlns:xlink="http://www.w3.org/1999/xlink" x="0px" y="0px"
	 viewBox="0 0 484.1 93.3" style="enable-background:new 0 0 484.1 93.3;" xml:space="preserve">
<style type="text/css">
	.st0{fill:#00954C;}
	.st1{fill:#FFFFFF;}
	.st2{fill:#5D6770;}
	.st3{fill:#4F5758;}
	.st4{fill:#ABADA1;}
	.st5{fill:#0085AE;}
</style>
<g>
	<g>
		<path class="st0" d="M4.2,93.3c-3.8,0-5.3-2.7-3.4-5.9l49.1-85c1.9-3.3,5-3.3,6.8,0l49.1,85c1.9,3.3,0.3,5.9-3.4,5.9H4.2z"/>
		<path class="st1" d="M37.3,34.8c-0.5,0.8-0.2,1.1,0.7,0.7l5.7-3c0.8-0.4,1.8-0.1,2.2,0.8l3.9,8.4c0.4,0.9,1.1,0.9,1.6,0.1
			l6.9-11.2c0.5-0.8,1.5-0.9,2.2-0.3l10.9,9.3c0.7,0.6,0.9,0.4,0.5-0.4L54.2,8.3c-0.5-0.8-1.2-0.8-1.7,0L37.3,34.8z"/>
		<path class="st1" d="M51.1,59.7c0,0,0.1-0.1,0.2-0.2c0-0.1-0.1-0.3-0.1-0.3c-2.7-3.5-6.9-5.7-11.6-5.7C31.5,53.5,25,60,25,68.1
			c0,8.1,6.6,14.6,14.6,14.6c4.4,0,8.4-2,11.1-5.1c0,0,0,0,0.1-0.1c0.4-0.5-0.1-0.8-0.1-0.8l-5.4-3.1c0,0-0.4-0.3-0.9,0.1
			c0,0-0.1,0.1-0.1,0.1c-1.3,1-2.9,1.6-4.6,1.6c-4.1,0-7.3-3.3-7.3-7.3c0-4.1,3.3-7.3,7.3-7.3c2,0,3.8,0.8,5.1,2.1l0,0
			c0.3,0.3,0.7,0.1,0.7,0.1L51.1,59.7"/>
		<path class="st1" d="M67.7,60.8c4.1,0,7.3,3.3,7.3,7.3c0,4-3.3,7.3-7.3,7.3c-4,0-7.3-3.3-7.3-7.3C60.4,64.1,63.7,60.8,67.7,60.8
			 M67.7,82.7c8.1,0,14.6-6.6,14.6-14.6c0-8.1-6.6-14.6-14.6-14.6c-8.1,0-14.6,6.6-14.6,14.6C53.1,76.2,59.7,82.7,67.7,82.7"/>
		<g>
			<path class="st0" d="M111,89.5h-1c-0.1,0-0.1-0.1-0.1-0.1v-0.5c0-0.1,0.1-0.1,0.1-0.1h2.9c0.1,0,0.1,0.1,0.1,0.1v0.5
				c0,0.1-0.1,0.1-0.1,0.1h-1v3.7c0,0.1-0.1,0.1-0.1,0.1h-0.6c-0.1,0-0.1-0.1-0.1-0.1V89.5z"/>
			<path class="st0" d="M114.7,88.7c0-0.1,0-0.1,0.1-0.1h0.1c0.1,0,0.1,0,0.1,0.1l1.4,3.1h0l1.4-3.1c0,0,0.1-0.1,0.1-0.1h0.1
				c0.1,0,0.1,0,0.1,0.1l0.8,4.4c0,0.1,0,0.2-0.1,0.2h-0.6c-0.1,0-0.1-0.1-0.1-0.1l-0.4-2.5h0l-1.1,2.6c0,0,0,0.1-0.1,0.1h-0.1
				c-0.1,0-0.1,0-0.1-0.1l-1.2-2.6h0l-0.4,2.5c0,0-0.1,0.1-0.1,0.1h-0.6c-0.1,0-0.1-0.1-0.1-0.2L114.7,88.7z"/>
		</g>
	</g>
	<g>
		<path class="st2" d="M226.3,19.2c1.8,0,3.7,0.7,5.1,1.9c0.3,0.3,0.7,0.3,0.9,0l2.9-3c0.3-0.3,0.3-0.7,0-1.1
			c-2.5-2.3-5.3-3.5-9.1-3.5c-7.5,0-13.5,6-13.5,13.5c0,7.5,6,13.5,13.5,13.5c3.3,0,6.6-1.2,9.1-3.6c0.3-0.3,0.3-0.7,0-1l-2.9-3.1
			c-0.2-0.3-0.7-0.3-1,0c-1.3,1.2-3.3,1.8-5,1.8c-4.2,0-7.4-3.5-7.4-7.6C219,22.8,222.1,19.2,226.3,19.2"/>
		<path class="st2" d="M259.5,13.6c-7.5,0-13.5,6-13.5,13.5c0,7.5,6,13.5,13.5,13.5c7.5,0,13.5-6,13.5-13.5
			C273,19.6,267,13.6,259.5,13.6 M259.5,34.6c-4.1,0-7.5-3.4-7.5-7.5c0-4.1,3.4-7.5,7.5-7.5c4.1,0,7.5,3.4,7.5,7.5
			C267,31.2,263.6,34.6,259.5,34.6"/>
		<path class="st2" d="M300.4,34.7h-9v-20c0-0.4-0.3-0.7-0.7-0.7h-4.5c-0.4,0-0.7,0.3-0.7,0.7v24.8c0,0.4,0.3,0.7,0.7,0.7h14.2
			c0.4,0,0.7-0.3,0.7-0.7v-4.1C301.1,35,300.8,34.7,300.4,34.7"/>
		<path class="st2" d="M324.9,13.6c-7.5,0-13.5,6-13.5,13.5c0,7.5,6,13.5,13.5,13.5c7.5,0,13.5-6,13.5-13.5
			C338.4,19.6,332.4,13.6,324.9,13.6 M324.9,34.6c-4.1,0-7.5-3.4-7.5-7.5c0-4.1,3.4-7.5,7.5-7.5c4.1,0,7.5,3.4,7.5,7.5
			C332.4,31.2,329,34.6,324.9,34.6"/>
		<path class="st2" d="M366.2,29.6c3.3-1.3,5.5-4.1,5.5-7.5c0-4.5-3.7-8.1-8.2-8.1h-11.2c-0.4,0-0.7,0.3-0.7,0.7v24.8
			c0,0.4,0.3,0.7,0.7,0.7h4.5c0.4,0,0.7-0.3,0.7-0.7v-9.6h2.6l5.4,9.9c0.1,0.2,0.3,0.3,0.6,0.3h5c0.6,0,0.9-0.6,0.6-1.1L366.2,29.6z
			 M363.1,25.2h-5.5v-5.8h5.5c1.5,0,2.8,1.3,2.8,2.8C366,23.7,364.7,25.2,363.1,25.2"/>
		<path class="st2" d="M432.3,14h-9.1c-0.4,0-0.7,0.3-0.7,0.7v24.8c0,0.4,0.3,0.7,0.7,0.7h9.1c7.2,0,13.2-5.9,13.2-13.2
			C445.4,19.8,439.5,14,432.3,14 M431.9,34.6h-3.6V19.5h3.6c4.2,0,7.3,3.3,7.3,7.6C439.2,31.3,436.1,34.6,431.9,34.6"/>
		<path class="st2" d="M470.6,13.6c-7.5,0-13.5,6-13.5,13.5c0,7.5,6,13.5,13.5,13.5c7.5,0,13.5-6,13.5-13.5
			C484.1,19.6,478.1,13.6,470.6,13.6 M470.6,34.6c-4.1,0-7.5-3.4-7.5-7.5c0-4.1,3.4-7.5,7.5-7.5c4.1,0,7.5,3.4,7.5,7.5
			C478.1,31.2,474.8,34.6,470.6,34.6"/>
		<path class="st2" d="M397.7,14c-0.1-0.2-0.4-0.4-0.6-0.4h-0.4c-0.3,0-0.5,0.2-0.6,0.4l-11.7,25.2c-0.2,0.5,0.1,1,0.6,1h4.1
			c0.7,0,1.1-0.2,1.3-0.9l1.3-3H402l1.3,3c0.4,0.8,0.5,0.9,1.3,0.9h4.2c0.6,0,0.9-0.5,0.6-1L397.7,14z M393.4,31.9l3.4-7.9l3.4,7.9
			H393.4z"/>
	</g>
	<g>
		<path class="st2" d="M212.6,77.5h2.2V64.4h-2.2v-2.5H226v4.7h-2.8v-2h-5.1v5h6v2.7h-6v5.1h5.4v-2h2.9V80h-13.8V77.5z"/>
		<path class="st2" d="M228.5,77.5h1.9V70c0-0.4-0.2-0.6-0.6-0.6h-1.5V67h3.4c1.1,0,1.7,0.5,1.7,1.5V69c0,0.3-0.1,0.6-0.1,0.6h0.1
			c0.2-0.4,1.5-2.9,4.8-2.9c2.8,0,4.4,1.5,4.4,4.9v5.9h1.9V80h-5.1v-7.7c0-1.6-0.4-2.6-2.1-2.6c-2.3,0-3.7,2.2-3.7,4.5v3.4h1.9V80
			h-7V77.5z"/>
		<path class="st2" d="M252.3,66.7c3.7,0,5.8,2.7,5.8,6.2c0,0.4-0.1,1.1-0.1,1.1h-9c0.2,2.4,1.9,3.6,3.9,3.6c2.1,0,3.8-1.4,3.8-1.4
			l1.2,2.3c0,0-2,1.8-5.2,1.8c-4.3,0-7-3.1-7-6.8C245.7,69.5,248.4,66.7,252.3,66.7z M254.8,72c-0.1-1.8-1.1-2.9-2.5-2.9
			c-1.7,0-2.8,1.1-3.1,2.9H254.8z"/>
		<path class="st2" d="M260,77.5h1.9V70c0-0.4-0.2-0.6-0.6-0.6h-1.5V67h3.4c1.1,0,1.7,0.5,1.7,1.6v0.8c0,0.5-0.1,0.8-0.1,0.8h0.1
			c0.6-1.9,2.1-3.3,4.1-3.3c0.3,0,0.6,0.1,0.6,0.1V70c0,0-0.3-0.1-0.8-0.1c-2.6,0-3.8,2.3-3.8,4.7v2.8h1.9V80h-7V77.5z"/>
		<path class="st2" d="M276.6,82.7c2,0,3.7-0.9,3.7-3.3v-0.8c0-0.3,0.1-0.7,0.1-0.7h-0.1c-0.8,1.1-1.9,1.8-3.6,1.8
			c-3.7,0-5.8-3-5.8-6.6c0-3.6,2-6.5,5.8-6.5c1.6,0,3.3,0.6,4,2h0.1c0,0-0.1-0.2-0.1-0.4c0-0.7,0.5-1.2,1.5-1.2h3.2v2.4H284
			c-0.3,0-0.6,0.2-0.6,0.5v9.3c0,4.5-3.5,6.1-6.8,6.1c-1.6,0-3.4-0.5-4.6-1.1l1-2.4C273,81.8,274.6,82.7,276.6,82.7z M280.3,73.2
			c0-3-1.5-3.7-3.2-3.7c-2,0-3.1,1.4-3.1,3.6c0,2.3,1.2,3.9,3.3,3.9C278.9,77,280.3,76.1,280.3,73.2z"/>
		<path class="st2" d="M289.4,82.7c1,0,1.9-0.6,2.3-1.5l0.4-0.8l-4.5-10.9h-1.6V67h6.4v2.4h-1.5l2.4,6.6c0.2,0.6,0.3,1.3,0.3,1.3
			h0.1c0,0,0.1-0.7,0.4-1.3l2.3-6.6h-1.5V67h6.1v2.4h-1.5l-4.8,12.2c-1,2.6-2.9,3.7-5.1,3.7c-1.9,0-3.2-0.9-3.2-0.9l1-2.4
			C287.5,82,288.2,82.7,289.4,82.7z"/>
		<path class="st2" d="M317.5,61.6c5.3,0,9.4,4,9.4,9.2c0,5.3-4,9.5-9.4,9.5c-5.3,0-9.4-4.1-9.4-9.5
			C308.2,65.6,312.2,61.6,317.5,61.6z M317.5,77.3c3.3,0,5.9-2.8,5.9-6.5c0-3.6-2.7-6.3-5.9-6.3c-3.3,0-5.9,2.7-5.9,6.3
			C311.6,74.5,314.3,77.3,317.5,77.3z"/>
		<path class="st2" d="M328.9,77.5h1.9v-8.1h-2V67h2v-0.6c0-4.2,3.4-4.7,5.1-4.7c0.8,0,1.3,0.1,1.3,0.1v2.6c0,0-0.3-0.1-1-0.1
			c-0.7,0-2.2,0.2-2.2,2V67h5.9v-0.6c0-4.2,3.3-4.7,5.1-4.7c0.8,0,1.3,0.1,1.3,0.1v2.6c0,0-0.3-0.1-1-0.1c-0.7,0-2.2,0.2-2.2,2V67
			h9.1v10.6h1.9V80h-7v-2.4h1.9v-8.1h-5.9v8.1h2.2V80H338v-2.4h1.9v-8.1H334v8.1h2.2V80h-7.3V77.5z M349,61.9h3.3v2.9H349V61.9z"/>
		<path class="st2" d="M362.5,66.7c2.2,0,5.3,0.8,5.3,3.1v1.8H365v-0.9c0-0.9-1.3-1.3-2.4-1.3c-2.4,0-3.8,1.6-3.8,4
			c0,2.7,1.9,4.1,4.1,4.1c1.8,0,3.3-1,4-1.6l1.1,2.3c-0.9,0.8-2.9,2-5.4,2c-3.8,0-7.2-2.6-7.2-6.8C355.5,69.6,358.5,66.7,362.5,66.7
			z"/>
		<path class="st2" d="M376.1,66.7c3.7,0,5.8,2.7,5.8,6.2c0,0.4-0.1,1.1-0.1,1.1h-9c0.2,2.4,1.9,3.6,3.9,3.6c2.1,0,3.8-1.4,3.8-1.4
			l1.2,2.3c0,0-2,1.8-5.2,1.8c-4.3,0-7-3.1-7-6.8C369.5,69.5,372.2,66.7,376.1,66.7z M378.5,72c-0.1-1.8-1.1-2.9-2.5-2.9
			c-1.7,0-2.8,1.1-3.1,2.9H378.5z"/>
	</g>
	<rect x="196.4" y="0" class="st2" width="1.2" height="93.3"/>
	<g>
		<path class="st3" d="M176.8,0c3.7,0,5.3,2.6,3.4,5.9l-48.8,84.5c-1.9,3.2-4.9,3.2-6.8,0L75.8,5.9C74,2.6,75.5,0,79.2,0H176.8"/>
		<polygon class="st1" points="116.3,67.6 119.1,72.4 141.7,64.3 145.9,57 		"/>
		<polygon class="st1" points="120.2,74.4 122.9,79 135.8,74.4 139.9,67.3 		"/>
		<path class="st1" d="M124.1,81l1.7,3c1.2,2.2,3.3,2.2,4.5,0l3.8-6.6L124.1,81z"/>
		<polygon class="st4" points="115.2,65.6 125.9,61.8 109.6,56 		"/>
		<path class="st5" d="M163.1,27.6l-15.4,26.6l-18.5,6.6l-21.5-7.6L92.9,27.6c-1.3-2.2-0.2-4,2.3-4h65.6
			C163.3,23.7,164.4,25.5,163.1,27.6"/>
		<g>
			<path class="st1" d="M114,5.2c1.9,0,3.4,0.6,4.7,1.8c0.2,0.2,0.2,0.4,0,0.5l-1.5,1.6c-0.1,0.1-0.4,0.1-0.5,0
				c-0.7-0.6-1.7-1-2.6-1c-2.2,0-3.8,1.8-3.8,4c0,2.2,1.6,3.9,3.8,3.9c0.9,0,1.9-0.3,2.6-0.9c0.1-0.1,0.4-0.1,0.5,0l1.5,1.6
				c0.1,0.1,0.1,0.4,0,0.5c-1.3,1.3-3,1.9-4.7,1.9c-3.9,0-7-3.1-7-7C107,8.3,110.1,5.2,114,5.2z"/>
			<path class="st1" d="M123.6,5.7c0-0.2,0.2-0.4,0.4-0.4h8.1c0.2,0,0.4,0.2,0.4,0.4v2.1c0,0.2-0.2,0.4-0.4,0.4h-5.4v2.4h4.4
				c0.2,0,0.4,0.2,0.4,0.4v2.1c0,0.2-0.2,0.4-0.4,0.4h-4.4v2.6h5.4c0.2,0,0.4,0.2,0.4,0.4v2.1c0,0.2-0.2,0.4-0.4,0.4H124
				c-0.2,0-0.4-0.2-0.4-0.4V5.7z"/>
			<path class="st1" d="M143.5,5.2c3.9,0,7,3.1,7,7c0,3.9-3.1,7-7,7s-7-3.1-7-7C136.5,8.3,139.6,5.2,143.5,5.2z M143.5,16.1
				c2.1,0,3.9-1.8,3.9-3.9c0-2.1-1.7-3.9-3.9-3.9c-2.1,0-3.9,1.8-3.9,3.9C139.7,14.3,141.4,16.1,143.5,16.1z"/>
		</g>
		<path class="st1" d="M126.1,26.1c0-0.1-0.1-0.1-0.2-0.1c-0.1,0-0.1,0.1-0.1,0.2l1.7,11.6l-3.8-1.4c-0.1,0-0.1,0-0.2,0
			c0,0-0.1,0.1,0,0.2l2.2,9.1l-3.7-1.4c-0.1,0-0.1,0-0.2,0c0,0,0,0.1,0,0.2l8.2,13.9c0,0,0.1,0.1,0.1,0.1c0,0,0,0,0.1,0
			c0.1,0,0.1-0.1,0.1-0.2l-1.2-8.1l3.8,1.4c0,0,0.1,0,0.2,0c0,0,0.1-0.1,0-0.2l-2.2-9.1l3.7,1.4c0.1,0,0.1,0,0.2,0
			c0,0,0.1-0.1,0-0.2L126.1,26.1z"/>
	</g>
</g>
</svg>
