<?xml version="1.0" encoding="utf-8"?>
<!-- Generator: Adobe Illustrator 19.0.1, SVG Export Plug-In . SVG Version: 6.00 Build 0)  -->
<svg version="1.1" id="Layer_1" xmlns="http://www.w3.org/2000/svg" xmlns:xlink="http://www.w3.org/1999/xlink" x="0px" y="0px"
	 viewBox="0 0 302.2 51.8" style="enable-background:new 0 0 302.2 51.8;" xml:space="preserve">
<style type="text/css">
	.st0{fill:#FFFFFF;}
</style>
<g>
	<g>
		<path class="st0" d="M58.7,48.5L31.5,1.4c-1-1.8-2.8-1.8-3.8,0L0.4,48.5c-1,1.8-0.2,3.3,1.9,3.3h54.5
			C58.9,51.8,59.8,50.3,58.7,48.5z M28.4,33.1L25.2,35c0,0-0.2,0.1-0.4-0.1l0,0c-0.7-0.7-1.7-1.2-2.8-1.2c-2.2,0-4.1,1.8-4.1,4.1
			c0,2.2,1.8,4.1,4.1,4.1c1,0,1.9-0.3,2.6-0.9c0,0,0,0,0.1-0.1c0.2-0.2,0.5,0,0.5,0l3,1.7c0,0,0.3,0.2,0.1,0.4c0,0,0,0,0,0
			c-1.5,1.7-3.7,2.8-6.1,2.8c-4.5,0-8.1-3.6-8.1-8.1c0-4.5,3.6-8.1,8.1-8.1c2.6,0,4.9,1.2,6.4,3.2c0,0,0.1,0.1,0.1,0.2
			C28.4,33.1,28.4,33.1,28.4,33.1z M27.6,23.1l-2.1-4.7c-0.2-0.5-0.8-0.7-1.2-0.4l-3.2,1.6c-0.5,0.2-0.6,0.1-0.4-0.4l8.4-14.7
			c0.3-0.5,0.7-0.5,0.9,0l9.8,17.1c0.3,0.5,0.1,0.5-0.3,0.2l-6-5.2c-0.4-0.3-0.9-0.3-1.2,0.2l-3.8,6.2
			C28.3,23.6,27.9,23.6,27.6,23.1z M37.6,45.9c-4.5,0-8.1-3.6-8.1-8.1c0-4.5,3.6-8.1,8.1-8.1c4.5,0,8.1,3.6,8.1,8.1
			C45.7,42.3,42.1,45.9,37.6,45.9z"/>
		<path class="st0" d="M37.6,33.7c-2.2,0-4.1,1.8-4.1,4.1c0,2.2,1.8,4.1,4.1,4.1c2.3,0,4.1-1.8,4.1-4.1
			C41.7,35.6,39.9,33.7,37.6,33.7z"/>
	</g>
	<g>
		<path class="st0" d="M61.6,49.7h-0.6c0,0-0.1,0-0.1-0.1v-0.3c0,0,0-0.1,0.1-0.1h1.6c0,0,0.1,0,0.1,0.1v0.3c0,0,0,0.1-0.1,0.1h-0.6
			v2c0,0,0,0.1-0.1,0.1h-0.3c0,0-0.1,0-0.1-0.1V49.7z"/>
		<path class="st0" d="M63.7,49.3C63.7,49.2,63.7,49.2,63.7,49.3l0.1-0.1c0,0,0.1,0,0.1,0l0.8,1.7h0l0.8-1.7c0,0,0,0,0.1,0h0.1
			c0,0,0.1,0,0.1,0.1l0.4,2.4c0,0.1,0,0.1-0.1,0.1h-0.3c0,0-0.1,0-0.1-0.1l-0.2-1.4h0l-0.6,1.4c0,0,0,0-0.1,0h-0.1c0,0-0.1,0-0.1,0
			l-0.6-1.4h0l-0.2,1.4c0,0,0,0.1-0.1,0.1h-0.3c0,0-0.1,0-0.1-0.1L63.7,49.3z"/>
	</g>
	<g>
		<path class="st0" d="M86,20.8c1.5,0,3.1,0.6,4.2,1.6c0.2,0.2,0.6,0.2,0.8,0l2.5-2.5c0.2-0.3,0.2-0.6,0-0.9
			c-2.1-1.9-4.5-2.9-7.6-2.9c-6.3,0-11.3,5.1-11.3,11.3c0,6.3,5.1,11.3,11.3,11.3c2.8,0,5.5-1,7.6-3c0.2-0.2,0.2-0.6,0-0.9l-2.4-2.6
			c-0.2-0.2-0.6-0.2-0.8,0c-1.1,1-2.7,1.5-4.2,1.5c-3.6,0-6.2-2.9-6.2-6.4C79.8,23.8,82.5,20.8,86,20.8"/>
		<path class="st0" d="M113.8,16.1c-6.3,0-11.3,5.1-11.3,11.3c0,6.3,5,11.3,11.3,11.3c6.3,0,11.3-5,11.3-11.3
			C125.1,21.1,120.1,16.1,113.8,16.1 M113.8,33.7c-3.4,0-6.3-2.8-6.3-6.3c0-3.5,2.8-6.3,6.3-6.3c3.5,0,6.3,2.9,6.3,6.3
			C120.1,30.8,117.3,33.7,113.8,33.7"/>
		<path class="st0" d="M148.1,33.8h-7.6V17c0-0.3-0.3-0.6-0.6-0.6h-3.7c-0.3,0-0.6,0.3-0.6,0.6v20.8c0,0.3,0.2,0.6,0.6,0.6h11.9
			c0.3,0,0.6-0.3,0.6-0.6v-3.4C148.7,34,148.5,33.8,148.1,33.8"/>
		<path class="st0" d="M168.7,16.1c-6.3,0-11.3,5.1-11.3,11.3c0,6.3,5,11.3,11.3,11.3c6.3,0,11.3-5,11.3-11.3
			C180,21.1,175,16.1,168.7,16.1 M168.7,33.7c-3.4,0-6.3-2.8-6.3-6.3c0-3.5,2.8-6.3,6.3-6.3c3.5,0,6.3,2.9,6.3,6.3
			C175,30.8,172.1,33.7,168.7,33.7"/>
		<path class="st0" d="M203.3,29.5c2.7-1.1,4.6-3.4,4.6-6.3c0-3.7-3.1-6.8-6.8-6.8h-9.4c-0.4,0-0.6,0.3-0.6,0.6v20.8
			c0,0.3,0.2,0.6,0.6,0.6h3.7c0.3,0,0.6-0.3,0.6-0.6v-8h2.2l4.5,8.3c0.1,0.1,0.3,0.3,0.5,0.3h4.2c0.5,0,0.8-0.5,0.5-0.9L203.3,29.5z
			 M200.7,25.8h-4.7v-4.9h4.7c1.3,0,2.4,1.1,2.4,2.4C203.1,24.6,202,25.8,200.7,25.8"/>
		<path class="st0" d="M258.7,16.4H251c-0.3,0-0.6,0.3-0.6,0.6v20.8c0,0.3,0.3,0.6,0.6,0.6h7.7c6.1,0,11-4.9,11-11
			C269.7,21.3,264.8,16.4,258.7,16.4 M258.4,33.7h-3V21h3c3.5,0,6.1,2.8,6.1,6.3C264.5,30.9,261.9,33.7,258.4,33.7"/>
		<path class="st0" d="M290.9,16.1c-6.3,0-11.3,5.1-11.3,11.3c0,6.3,5,11.3,11.3,11.3c6.3,0,11.3-5,11.3-11.3
			C302.2,21.1,297.1,16.1,290.9,16.1 M290.9,33.7c-3.4,0-6.3-2.8-6.3-6.3c0-3.5,2.8-6.3,6.3-6.3c3.5,0,6.3,2.9,6.3,6.3
			C297.1,30.8,294.3,33.7,290.9,33.7"/>
		<path class="st0" d="M229.7,16.4c-0.1-0.2-0.3-0.3-0.5-0.3h-0.3c-0.2,0-0.4,0.2-0.5,0.3l-9.8,21.1c-0.2,0.4,0.1,0.8,0.5,0.8h3.5
			c0.6,0,0.9-0.2,1.1-0.8l1.1-2.5h8.6l1.1,2.5c0.3,0.7,0.4,0.8,1.1,0.8h3.5c0.5,0,0.7-0.4,0.5-0.8L229.7,16.4z M226.1,31.4l2.9-6.6
			l2.9,6.6H226.1z"/>
	</g>
</g>
</svg>
