<?xml version="1.0" encoding="utf-8"?>
<!-- Generator: Adobe Illustrator 19.0.1, SVG Export Plug-In . SVG Version: 6.00 Build 0)  -->
<svg version="1.1" id="Layer_1" xmlns="http://www.w3.org/2000/svg" xmlns:xlink="http://www.w3.org/1999/xlink" x="0px" y="0px"
	 viewBox="0 0 16.3 16.3" style="enable-background:new 0 0 16.3 16.3;" xml:space="preserve">
<style type="text/css">
	.st0{fill:#0084AD;}
</style>
<g>
	<path class="st0" d="M15.9,14.1l-1.9,1.9c-0.2,0.2-0.6,0.4-0.9,0.4s-0.7-0.1-0.9-0.4l-4-4l-4,4c-0.2,0.2-0.6,0.4-0.9,0.4
		s-0.7-0.1-0.9-0.4l-1.9-1.9C0.1,13.8,0,13.5,0,13.1s0.1-0.7,0.4-0.9l4-4l-4-4C0.1,3.9,0,3.5,0,3.2s0.1-0.7,0.4-0.9l1.9-1.9
		C2.5,0.1,2.8,0,3.2,0s0.7,0.1,0.9,0.4l4,4l4-4C12.5,0.1,12.8,0,13.1,0s0.7,0.1,0.9,0.4l1.9,1.9c0.2,0.2,0.4,0.6,0.4,0.9
		s-0.1,0.7-0.4,0.9l-4,4l4,4c0.2,0.2,0.4,0.6,0.4,0.9S16.2,13.8,15.9,14.1z"/>
</g>
</svg>
