<?xml version="1.0" encoding="utf-8"?>
<!-- Generator: Adobe Illustrator 19.0.1, SVG Export Plug-In . SVG Version: 6.00 Build 0)  -->
<svg version="1.1" id="Layer_1" xmlns="http://www.w3.org/2000/svg" xmlns:xlink="http://www.w3.org/1999/xlink" x="0px" y="0px"
	 viewBox="0 0 20.2 15.9" style="enable-background:new 0 0 20.2 15.9;" xml:space="preserve">
<style type="text/css">
	.st0{fill:#0084AD;}
</style>
<g>
	<path class="st0" d="M15.9,12.7c0,1.8-1.5,3.3-3.3,3.3H3.3c-1.8,0-3.3-1.5-3.3-3.3V3.3C0,1.5,1.5,0,3.3,0h9.4
		c0.5,0,0.9,0.1,1.3,0.3c0.1,0,0.2,0.1,0.2,0.3c0,0.1,0,0.2-0.1,0.3l-0.6,0.6c-0.1,0.1-0.2,0.1-0.4,0.1c-0.2,0-0.3-0.1-0.5-0.1H3.3
		c-1,0-1.8,0.8-1.8,1.8v9.4c0,1,0.8,1.8,1.8,1.8h9.4c1,0,1.8-0.8,1.8-1.8v-1.4c0-0.1,0-0.2,0.1-0.2l0.7-0.7c0.1-0.1,0.3-0.1,0.4-0.1
		c0.1,0.1,0.2,0.2,0.2,0.3V12.7z M18.1,5.4L10.5,13H7.2V9.8l7.6-7.6L18.1,5.4z M11.4,10.6L9.6,8.9l-1.3,1.3v0.6h1.1v1.1H10
		L11.4,10.6z M14.6,3.8l-4,4c-0.1,0.1-0.1,0.3,0,0.4s0.3,0.1,0.4,0l4-4c0.1-0.1,0.1-0.3,0-0.4S14.7,3.7,14.6,3.8z M18.8,4.7
		l-3.3-3.3l1-1C17,0,17.7,0,18.1,0.4l1.7,1.7c0.4,0.4,0.4,1.1,0,1.5L18.8,4.7z"/>
</g>
</svg>
