<?xml version="1.0" encoding="utf-8"?>
<!-- Generator: Adobe Illustrator 19.0.1, SVG Export Plug-In . SVG Version: 6.00 Build 0)  -->
<svg version="1.1" id="Layer_1" xmlns="http://www.w3.org/2000/svg" xmlns:xlink="http://www.w3.org/1999/xlink" x="0px" y="0px"
	 viewBox="0 0 38.6 38.6" style="enable-background:new 0 0 38.6 38.6;" xml:space="preserve">
<style type="text/css">
	.st0{fill:#FFFFFF;}
</style>
<g>
	<path class="st0" d="M38.6,2.1v34.3c0,1.2-1,2.1-2.1,2.1h-9.8V23.6h5l0.8-5.8h-5.8v-3.7c0-1.7,0.5-2.8,2.9-2.8l3.1,0V6.1
		C32,6,30.2,5.8,28.1,5.8c-4.4,0-7.5,2.7-7.5,7.7v4.3h-5v5.8h5v14.9H2.1c-1.2,0-2.1-1-2.1-2.1V2.1C0,1,1,0,2.1,0h34.3
		C37.6,0,38.6,1,38.6,2.1z"/>
</g>
</svg>
