<?xml version="1.0" encoding="utf-8"?>
<!-- Generator: Adobe Illustrator 19.0.1, SVG Export Plug-In . SVG Version: 6.00 Build 0)  -->
<svg version="1.1" id="Layer_1" xmlns="http://www.w3.org/2000/svg" xmlns:xlink="http://www.w3.org/1999/xlink" x="0px" y="0px"
	 viewBox="0 0 41.6 59.3" style="enable-background:new 0 0 41.6 59.3;" xml:space="preserve">
<style type="text/css">
	.st0{fill:#0084AD;}
	.st1{fill:#6EC4E8;}
	.st2{fill:url(#SVGID_1_);}
</style>
<g>
	<g>
		<g>
			<g>
				<path class="st0" d="M35.5,6.1C30.4,1,23-1.1,16,0.5C10.7,1.8,6,5.2,3.1,9.8c-1.5,2.3-2.5,5-2.9,7.7c-0.5,3-0.2,6,0.4,8.9
					c1.2,5.5,3.7,10.7,6.6,15.5c2.5,4.2,5.4,8.2,8.4,12c0.9,1.2,1.9,2.3,2.9,3.4c0.5,0.6,1.2,1.5,1.9,1.7c0.1,0,0.3,0.1,0.4,0.1
					c0.2,0,0.4-0.1,0.6-0.1c0.4-0.1,0.7-0.5,1-0.8c0.1-0.2,0.3-0.3,0.4-0.5c0.8-0.9,1.6-1.9,2.4-2.8c3-3.6,5.7-7.4,8.2-11.4
					c3-4.8,5.6-10,7.1-15.5c0.8-3,1.3-6.1,1-9.2c-0.3-3.3-1.4-6.4-3.1-9.2C37.6,8.4,36.6,7.2,35.5,6.1 M33.3,25.4
					c-2.2,6-8.5,9.7-14.8,8.6c-4.8-0.8-8.8-4.3-10.4-8.9c-1.6-4.7-0.4-10,3-13.6c3.7-3.8,9.4-5.2,14.3-3.3c5.9,2.2,9.6,8.6,8.5,14.8
					C33.8,23.9,33.6,24.6,33.3,25.4C33.2,25.7,33.9,24,33.3,25.4z"/>
				<path class="st1" d="M41.6,20.8c0,5.3-1.8,10.6-4.1,15.3c-2.1,4.5-4.8,8.8-7.6,12.9c-2,2.8-4.1,5.5-6.3,8.1
					c-0.4,0.4-0.7,0.9-1.1,1.3c-0.3,0.3-0.6,0.6-1,0.7c-0.1,0-0.6,0.3-0.7,0.1c-0.1-0.1,0-0.4,0-0.5c0-2.6,0-5.1,0-7.7
					c0-3.6,0-7.2,0-10.8c0-1.4,0-2.7,0-4.1c0-0.4,0-0.9,0-1.3c0-0.1-0.1-0.5,0-0.6c0.1-0.1,0.9-0.1,1.1-0.1c0.8-0.1,1.6-0.2,2.4-0.4
					c1.6-0.4,3.1-1.1,4.4-2.1c2.7-2,4.6-4.9,5.2-8.1c0.7-3.3,0.1-6.9-1.7-9.8c-1.6-2.5-4-4.5-6.7-5.5c-0.8-0.3-1.5-0.5-2.3-0.6
					c-0.4-0.1-0.7-0.1-1.1-0.1c-0.2,0-0.4,0-0.6,0c-0.1,0-0.5,0-0.6,0c0,0,0-0.3,0-0.4c0-0.3,0-0.6,0-0.9c0-1.7,0-3.4,0-5.1
					c0-0.4,0-0.7,0-1.1c4.6,0,9.2,1.6,12.8,4.4c3.1,2.5,5.5,5.8,6.8,9.6C41.2,16.2,41.6,18.5,41.6,20.8z"/>
			</g>
			<g>
				<linearGradient id="SVGID_1_" gradientUnits="userSpaceOnUse" x1="6.726" y1="20.791" x2="34.8445" y2="20.791">
					<stop  offset="0" style="stop-color:#6EC4E8"/>
					<stop  offset="1" style="stop-color:#0084AD"/>
				</linearGradient>
				<path class="st2" d="M6.7,20.8C6.7,26.6,10.5,32,16,34c5.5,2,11.9,0.2,15.6-4.3c3.8-4.5,4.3-11.1,1.2-16.2
					C29.8,8.5,23.7,5.8,18,7C12.3,8.2,7.8,12.9,6.9,18.6C6.8,19.3,6.7,20.1,6.7,20.8z M25.3,10.8c4.7,2.1,7.3,7.4,6.2,12.4
					c-0.9,3.9-3.9,7-7.7,8.1c-3.9,1.1-8.2-0.1-11-3c-3-3.2-3.8-8-2-12c2.2-4.8,7.6-7.4,12.7-6.1C24.1,10.3,24.7,10.5,25.3,10.8
					C25.6,10.9,25.1,10.7,25.3,10.8z"/>
			</g>
		</g>
	</g>
</g>
</svg>
