<?xml version="1.0" encoding="utf-8"?>
<!-- Generator: Adobe Illustrator 19.0.1, SVG Export Plug-In . SVG Version: 6.00 Build 0)  -->
<svg version="1.1" id="Layer_1" xmlns="http://www.w3.org/2000/svg" xmlns:xlink="http://www.w3.org/1999/xlink" x="0px" y="0px"
	 viewBox="0 0 20.6 20.6" style="enable-background:new 0 0 20.6 20.6;" xml:space="preserve">
<style type="text/css">
	.st0{fill:#FFFFFF;}
</style>
<g>
	<g>
		<path class="st0" d="M10.3,20.6C4.6,20.6,0,16,0,10.3C0,4.6,4.6,0,10.3,0s10.3,4.6,10.3,10.3C20.6,16,16,20.6,10.3,20.6z
			 M10.6,3.4c-2.2,0-3.8,0.9-5,2.9C5.5,6.5,5.5,6.7,5.7,6.8l1.8,1.3c0.1,0.1,0.2,0.1,0.3,0.1c0.1,0,0.3-0.1,0.3-0.2
			c0.6-0.8,0.9-1,1.2-1.2c0.2-0.2,0.7-0.3,1.2-0.3c0.9,0,1.6,0.5,1.6,1.1c0,0.7-0.4,1-1.2,1.4c-1,0.4-2.3,1.5-2.3,2.8v0.5
			c0,0.2,0.2,0.4,0.4,0.4h2.6c0.2,0,0.4-0.2,0.4-0.4c0-0.3,0.4-1,1-1.3c1-0.6,2.4-1.4,2.4-3.4C15.4,5.3,12.9,3.4,10.6,3.4z M12,14.1
			c0-0.2-0.2-0.4-0.4-0.4H9c-0.2,0-0.4,0.2-0.4,0.4v2.6c0,0.2,0.2,0.4,0.4,0.4h2.6c0.2,0,0.4-0.2,0.4-0.4V14.1z"/>
	</g>
</g>
</svg>
