<?xml version="1.0" encoding="utf-8"?>
<!-- Generator: Adobe Illustrator 19.0.1, SVG Export Plug-In . SVG Version: 6.00 Build 0)  -->
<svg version="1.1" id="Layer_1" xmlns="http://www.w3.org/2000/svg" xmlns:xlink="http://www.w3.org/1999/xlink" x="0px" y="0px"
	 viewBox="0 0 38.6 38.6" style="enable-background:new 0 0 38.6 38.6;" xml:space="preserve">
<style type="text/css">
	.st0{fill:#FFFFFF;}
</style>
<g>
	<path class="st0" d="M38.6,31.3c0,4-3.2,7.2-7.2,7.2H7.2c-4,0-7.2-3.2-7.2-7.2V7.2C0,3.2,3.2,0,7.2,0h24.1c4,0,7.2,3.2,7.2,7.2
		V31.3z M29.1,13c1.1-0.7,1.9-1.7,2.3-2.9c-1,0.6-2.2,1.1-3.4,1.3c-1-1-2.3-1.7-3.8-1.7c-2.9,0-5.3,2.4-5.3,5.3c0,0.4,0,0.8,0.1,1.2
		c-4.4-0.2-8.3-2.3-10.9-5.5c-0.5,0.8-0.7,1.7-0.7,2.7c0,1.8,0.9,3.4,2.3,4.4c-0.9,0-1.7-0.3-2.5-0.7c0,0,0,0,0,0
		c0,2.6,1.9,4.7,4.3,5.2c-0.5,0.1-0.8,0.2-1.3,0.2c-0.3,0-0.7-0.1-1-0.1c0.7,2.1,2.6,3.6,4.9,3.7c-1.8,1.4-4.1,2.3-6.6,2.3
		c-0.4,0-0.9,0-1.3-0.1c2.3,1.5,5.1,2.4,8.1,2.4c9.7,0,15-8,15-15c0-0.2,0-0.5,0-0.7c1-0.7,1.9-1.7,2.6-2.7
		C31.2,12.5,30.2,12.8,29.1,13z"/>
</g>
</svg>
